<svg xmlns="http://www.w3.org/2000/svg" viewBox="0 0 900 1431">
  <defs>
    <style>
      .background { fill: #fff; }
      .unit-background { fill: #e6e7e8; }
      .unit-label { fill: #ed1c24; }
      .x-box { fill: #6cf; stroke: #339; }
      .x-text { fill: #339; }
      .y-box { fill: #c49a6c; stroke: #603913; }
      .y-text { fill: #603913; }
      .z-box { fill: #39b54a; stroke: #004800; }
      .z-text { fill: #004800; }
      .w-box { fill: #bcbec0; stroke: #58595b; }
      .w-text { fill: #58595b; }
      .and-box { fill: #bfcfff; stroke: #2e3192; }
      .and-text { fill: #2e3192; }
      .xor-box { fill: #febfff; stroke: #b4009d; }
      .xor-text { fill: #b4009d; }
      .or-box { fill: #fbc254; stroke: #c30; }
      .or-text { fill: #c30; }
      .arrow-line { stroke: #808285; }
      .arrow-head { fill: #808285; }
      .x-box, .y-box, .z-box, .w-box, .and-box, .xor-box, .or-box, .arrow-line { stroke-miterlimit: 10; }
    </style>
  </defs>
  <rect width="900" height="1431" class="background"/>
  <g>
    <polygon class="unit-background" points="234 954 234 774 54 774 54 1314 414 1314 414 954 234 954"/>
    <path class="unit-label" d="M234,773h-6v1h6v-1h0ZM222,773h-6v1h6v-1h0ZM210,773h-6v1h6v-1h0ZM198,773h-6v1h6v-1h0ZM186,773h-6v1h6v-1h0ZM174,773h-6v1h6v-1h0ZM162,773h-6v1h6v-1h0ZM150,773h-6v1h6v-1h0ZM138,773h-6v1h6v-1h0ZM126,773h-6v1h6v-1h0ZM114,773h-6v1h6v-1h0ZM102,773h-6v1h6v-1h0ZM90,773h-6v1h6v-1h0ZM78,773h-6v1h6v-1h0ZM66,773h-6v1h6v-1h0ZM54,774h-1v6h1v-6h0ZM54,786h-1v6h1v-6h0ZM54,798h-1v6h1v-6h0ZM54,810h-1v6h1v-6h0ZM54,822h-1v6h1v-6h0ZM54,834h-1v6h1v-6h0ZM54,846h-1v6h1v-6h0ZM54,858h-1v6h1v-6h0ZM54,870h-1v6h1v-6h0ZM54,882h-1v6h1v-6h0ZM54,894h-1v6h1v-6h0ZM54,906h-1v6h1v-6h0ZM54,918h-1v6h1v-6h0ZM54,930h-1v6h1v-6h0ZM54,942h-1v6h1v-6h0ZM54,954h-1v6h1v-6h0ZM54,966h-1v6h1v-6h0ZM54,978h-1v6h1v-6h0ZM54,990h-1v6h1v-6h0ZM54,1002h-1v6h1v-6h0ZM54,1014h-1v6h1v-6h0ZM54,1026h-1v6h1v-6h0ZM54,1038h-1v6h1v-6h0ZM54,1050h-1v6h1v-6h0ZM54,1062h-1v6h1v-6h0ZM54,1074h-1v6h1v-6h0ZM54,1086h-1v6h1v-6h0ZM54,1098h-1v6h1v-6h0ZM54,1110h-1v6h1v-6h0ZM54,1122h-1v6h1v-6h0ZM54,1134h-1v6h1v-6h0ZM54,1146h-1v6h1v-6h0ZM54,1158h-1v6h1v-6h0ZM54,1170h-1v6h1v-6h0ZM54,1182h-1v6h1v-6h0ZM54,1194h-1v6h1v-6h0ZM54,1206h-1v6h1v-6h0ZM54,1218h-1v6h1v-6h0ZM54,1230h-1v6h1v-6h0ZM54,1242h-1v6h1v-6h0ZM54,1254h-1v6h1v-6h0ZM54,1266h-1v6h1v-6h0ZM54,1278h-1v6h1v-6h0ZM54,1290h-1v6h1v-6h0ZM54,1302h-1v6h1v-6h0ZM60,1314h-6v1h6v-1h0ZM72,1314h-6v1h6v-1h0ZM84,1314h-6v1h6v-1h0ZM96,1314h-6v1h6v-1h0ZM108,1314h-6v1h6v-1h0ZM120,1314h-6v1h6v-1h0ZM132,1314h-6v1h6v-1h0ZM144,1314h-6v1h6v-1h0ZM156,1314h-6v1h6v-1h0ZM168,1314h-6v1h6v-1h0ZM180,1314h-6v1h6v-1h0ZM192,1314h-6v1h6v-1h0ZM204,1314h-6v1h6v-1h0ZM216,1314h-6v1h6v-1h0ZM228,1314h-6v1h6v-1h0ZM240,1314h-6v1h6v-1h0ZM252,1314h-6v1h6v-1h0ZM264,1314h-6v1h6v-1h0ZM276,1314h-6v1h6v-1h0ZM288,1314h-6v1h6v-1h0ZM300,1314h-6v1h6v-1h0ZM312,1314h-6v1h6v-1h0ZM324,1314h-6v1h6v-1h0ZM336,1314h-6v1h6v-1h0ZM348,1314h-6v1h6v-1h0ZM360,1314h-6v1h6v-1h0ZM372,1314h-6v1h6v-1h0ZM384,1314h-6v1h6v-1h0ZM396,1314h-6v1h6v-1h0ZM408,1314h-6v1h6v-1h0ZM415,1308h-1v6h1v-6h0ZM415,1296h-1v6h1v-6h0ZM415,1284h-1v6h1v-6h0ZM415,1272h-1v6h1v-6h0ZM415,1260h-1v6h1v-6h0ZM415,1248h-1v6h1v-6h0ZM415,1236h-1v6h1v-6h0ZM415,1224h-1v6h1v-6h0ZM415,1212h-1v6h1v-6h0ZM415,1200h-1v6h1v-6h0ZM415,1188h-1v6h1v-6h0ZM415,1176h-1v6h1v-6h0ZM415,1164h-1v6h1v-6h0ZM415,1152h-1v6h1v-6h0ZM415,1140h-1v6h1v-6h0ZM415,1128h-1v6h1v-6h0ZM415,1116h-1v6h1v-6h0ZM415,1104h-1v6h1v-6h0ZM415,1092h-1v6h1v-6h0ZM415,1080h-1v6h1v-6h0ZM415,1068h-1v6h1v-6h0ZM415,1056h-1v6h1v-6h0ZM415,1044h-1v6h1v-6h0ZM415,1032h-1v6h1v-6h0ZM415,1020h-1v6h1v-6h0ZM415,1008h-1v6h1v-6h0ZM415,996h-1v6h1v-6h0ZM415,984h-1v6h1v-6h0ZM415,972h-1v6h1v-6h0ZM415,960h-1v6h1v-6h0ZM414,953h-6v1h6v-1h0ZM402,953h-6v1h6v-1h0ZM390,953h-6v1h6v-1h0ZM378,953h-6v1h6v-1h0ZM366,953h-6v1h6v-1h0ZM354,953h-6v1h6v-1h0ZM342,953h-6v1h6v-1h0ZM330,953h-6v1h6v-1h0ZM318,953h-6v1h6v-1h0ZM306,953h-6v1h6v-1h0ZM294,953h-6v1h6v-1h0ZM282,953h-6v1h6v-1h0ZM270,953h-6v1h6v-1h0ZM258,953h-6v1h6v-1h0ZM246,953h-6v1h6v-1h0ZM235,948h-1v6h1v-6h0ZM235,936h-1v6h1v-6h0ZM235,924h-1v6h1v-6h0ZM235,912h-1v6h1v-6h0ZM235,900h-1v6h1v-6h0ZM235,888h-1v6h1v-6h0ZM235,876h-1v6h1v-6h0ZM235,864h-1v6h1v-6h0ZM235,852h-1v6h1v-6h0ZM235,840h-1v6h1v-6h0ZM235,828h-1v6h1v-6h0ZM235,816h-1v6h1v-6h0ZM235,804h-1v6h1v-6h0ZM235,792h-1v6h1v-6h0ZM235,780h-1v6h1v-6h0Z"/>
  </g>
  <g>
    <polygon class="unit-background" points="414 594 414 414 234 414 234 954 594 954 594 594 414 594"/>
    <path class="unit-label" d="M414,413h-6v1h6v-1h0ZM402,413h-6v1h6v-1h0ZM390,413h-6v1h6v-1h0ZM378,413h-6v1h6v-1h0ZM366,413h-6v1h6v-1h0ZM354,413h-6v1h6v-1h0ZM342,413h-6v1h6v-1h0ZM330,413h-6v1h6v-1h0ZM318,413h-6v1h6v-1h0ZM306,413h-6v1h6v-1h0ZM294,413h-6v1h6v-1h0ZM282,413h-6v1h6v-1h0ZM270,413h-6v1h6v-1h0ZM258,413h-6v1h6v-1h0ZM246,413h-6v1h6v-1h0ZM234,414h-1v6h1v-6h0ZM234,426h-1v6h1v-6h0ZM234,438h-1v6h1v-6h0ZM234,450h-1v6h1v-6h0ZM234,462h-1v6h1v-6h0ZM234,474h-1v6h1v-6h0ZM234,486h-1v6h1v-6h0ZM234,498h-1v6h1v-6h0ZM234,510h-1v6h1v-6h0ZM234,522h-1v6h1v-6h0ZM234,534h-1v6h1v-6h0ZM234,546h-1v6h1v-6h0ZM234,558h-1v6h1v-6h0ZM234,570h-1v6h1v-6h0ZM234,582h-1v6h1v-6h0ZM234,594h-1v6h1v-6h0ZM234,606h-1v6h1v-6h0ZM234,618h-1v6h1v-6h0ZM234,630h-1v6h1v-6h0ZM234,642h-1v6h1v-6h0ZM234,654h-1v6h1v-6h0ZM234,666h-1v6h1v-6h0ZM234,678h-1v6h1v-6h0ZM234,690h-1v6h1v-6h0ZM234,702h-1v6h1v-6h0ZM234,714h-1v6h1v-6h0ZM234,726h-1v6h1v-6h0ZM234,738h-1v6h1v-6h0ZM234,750h-1v6h1v-6h0ZM234,762h-1v6h1v-6h0ZM234,774h-1v6h1v-6h0ZM234,786h-1v6h1v-6h0ZM234,798h-1v6h1v-6h0ZM234,810h-1v6h1v-6h0ZM234,822h-1v6h1v-6h0ZM234,834h-1v6h1v-6h0ZM234,846h-1v6h1v-6h0ZM234,858h-1v6h1v-6h0ZM234,870h-1v6h1v-6h0ZM234,882h-1v6h1v-6h0ZM234,894h-1v6h1v-6h0ZM234,906h-1v6h1v-6h0ZM234,918h-1v6h1v-6h0ZM234,930h-1v6h1v-6h0ZM234,942h-1v6h1v-6h0ZM240,954h-6v1h6v-1h0ZM252,954h-6v1h6v-1h0ZM264,954h-6v1h6v-1h0ZM276,954h-6v1h6v-1h0ZM288,954h-6v1h6v-1h0ZM300,954h-6v1h6v-1h0ZM312,954h-6v1h6v-1h0ZM324,954h-6v1h6v-1h0ZM336,954h-6v1h6v-1h0ZM348,954h-6v1h6v-1h0ZM360,954h-6v1h6v-1h0ZM372,954h-6v1h6v-1h0ZM384,954h-6v1h6v-1h0ZM396,954h-6v1h6v-1h0ZM408,954h-6v1h6v-1h0ZM420,954h-6v1h6v-1h0ZM432,954h-6v1h6v-1h0ZM444,954h-6v1h6v-1h0ZM456,954h-6v1h6v-1h0ZM468,954h-6v1h6v-1h0ZM480,954h-6v1h6v-1h0ZM492,954h-6v1h6v-1h0ZM504,954h-6v1h6v-1h0ZM516,954h-6v1h6v-1h0ZM528,954h-6v1h6v-1h0ZM540,954h-6v1h6v-1h0ZM552,954h-6v1h6v-1h0ZM564,954h-6v1h6v-1h0ZM576,954h-6v1h6v-1h0ZM588,954h-6v1h6v-1h0ZM595,948h-1v6h1v-6h0ZM595,936h-1v6h1v-6h0ZM595,924h-1v6h1v-6h0ZM595,912h-1v6h1v-6h0ZM595,900h-1v6h1v-6h0ZM595,888h-1v6h1v-6h0ZM595,876h-1v6h1v-6h0ZM595,864h-1v6h1v-6h0ZM595,852h-1v6h1v-6h0ZM595,840h-1v6h1v-6h0ZM595,828h-1v6h1v-6h0ZM595,816h-1v6h1v-6h0ZM595,804h-1v6h1v-6h0ZM595,792h-1v6h1v-6h0ZM595,780h-1v6h1v-6h0ZM595,768h-1v6h1v-6h0ZM595,756h-1v6h1v-6h0ZM595,744h-1v6h1v-6h0ZM595,732h-1v6h1v-6h0ZM595,720h-1v6h1v-6h0ZM595,708h-1v6h1v-6h0ZM595,696h-1v6h1v-6h0ZM595,684h-1v6h1v-6h0ZM595,672h-1v6h1v-6h0ZM595,660h-1v6h1v-6h0ZM595,648h-1v6h1v-6h0ZM595,636h-1v6h1v-6h0ZM595,624h-1v6h1v-6h0ZM595,612h-1v6h1v-6h0ZM595,600h-1v6h1v-6h0ZM594,593h-6v1h6v-1h0ZM582,593h-6v1h6v-1h0ZM570,593h-6v1h6v-1h0ZM558,593h-6v1h6v-1h0ZM546,593h-6v1h6v-1h0ZM534,593h-6v1h6v-1h0ZM522,593h-6v1h6v-1h0ZM510,593h-6v1h6v-1h0ZM498,593h-6v1h6v-1h0ZM486,593h-6v1h6v-1h0ZM474,593h-6v1h6v-1h0ZM462,593h-6v1h6v-1h0ZM450,593h-6v1h6v-1h0ZM438,593h-6v1h6v-1h0ZM426,593h-6v1h6v-1h0ZM415,588h-1v6h1v-6h0ZM415,576h-1v6h1v-6h0ZM415,564h-1v6h1v-6h0ZM415,552h-1v6h1v-6h0ZM415,540h-1v6h1v-6h0ZM415,528h-1v6h1v-6h0ZM415,516h-1v6h1v-6h0ZM415,504h-1v6h1v-6h0ZM415,492h-1v6h1v-6h0ZM415,480h-1v6h1v-6h0ZM415,468h-1v6h1v-6h0ZM415,456h-1v6h1v-6h0ZM415,444h-1v6h1v-6h0ZM415,432h-1v6h1v-6h0ZM415,420h-1v6h1v-6h0Z"/>
  </g>
  <g>
    <polygon class="unit-background" points="594 234 594 54 414 54 414 594 774 594 774 234 594 234"/>
    <path class="unit-label" d="M594,53h-6v1h6v-1h0ZM582,53h-6v1h6v-1h0ZM570,53h-6v1h6v-1h0ZM558,53h-6v1h6v-1h0ZM546,53h-6v1h6v-1h0ZM534,53h-6v1h6v-1h0ZM522,53h-6v1h6v-1h0ZM510,53h-6v1h6v-1h0ZM498,53h-6v1h6v-1h0ZM486,53h-6v1h6v-1h0ZM474,53h-6v1h6v-1h0ZM462,53h-6v1h6v-1h0ZM450,53h-6v1h6v-1h0ZM438,53h-6v1h6v-1h0ZM426,53h-6v1h6v-1h0ZM414,54h-1v6h1v-6h0ZM414,66h-1v6h1v-6h0ZM414,78h-1v6h1v-6h0ZM414,90h-1v6h1v-6h0ZM414,102h-1v6h1v-6h0ZM414,114h-1v6h1v-6h0ZM414,126h-1v6h1v-6h0ZM414,138h-1v6h1v-6h0ZM414,150h-1v6h1v-6h0ZM414,162h-1v6h1v-6h0ZM414,174h-1v6h1v-6h0ZM414,186h-1v6h1v-6h0ZM414,198h-1v6h1v-6h0ZM414,210h-1v6h1v-6h0ZM414,222h-1v6h1v-6h0ZM414,234h-1v6h1v-6h0ZM414,246h-1v6h1v-6h0ZM414,258h-1v6h1v-6h0ZM414,270h-1v6h1v-6h0ZM414,282h-1v6h1v-6h0ZM414,294h-1v6h1v-6h0ZM414,306h-1v6h1v-6h0ZM414,318h-1v6h1v-6h0ZM414,330h-1v6h1v-6h0ZM414,342h-1v6h1v-6h0ZM414,354h-1v6h1v-6h0ZM414,366h-1v6h1v-6h0ZM414,378h-1v6h1v-6h0ZM414,390h-1v6h1v-6h0ZM414,402h-1v6h1v-6h0ZM414,414h-1v6h1v-6h0ZM414,426h-1v6h1v-6h0ZM414,438h-1v6h1v-6h0ZM414,450h-1v6h1v-6h0ZM414,462h-1v6h1v-6h0ZM414,474h-1v6h1v-6h0ZM414,486h-1v6h1v-6h0ZM414,498h-1v6h1v-6h0ZM414,510h-1v6h1v-6h0ZM414,522h-1v6h1v-6h0ZM414,534h-1v6h1v-6h0ZM414,546h-1v6h1v-6h0ZM414,558h-1v6h1v-6h0ZM414,570h-1v6h1v-6h0ZM414,582h-1v6h1v-6h0ZM420,594h-6v1h6v-1h0ZM432,594h-6v1h6v-1h0ZM444,594h-6v1h6v-1h0ZM456,594h-6v1h6v-1h0ZM468,594h-6v1h6v-1h0ZM480,594h-6v1h6v-1h0ZM492,594h-6v1h6v-1h0ZM504,594h-6v1h6v-1h0ZM516,594h-6v1h6v-1h0ZM528,594h-6v1h6v-1h0ZM540,594h-6v1h6v-1h0ZM552,594h-6v1h6v-1h0ZM564,594h-6v1h6v-1h0ZM576,594h-6v1h6v-1h0ZM588,594h-6v1h6v-1h0ZM600,594h-6v1h6v-1h0ZM612,594h-6v1h6v-1h0ZM624,594h-6v1h6v-1h0ZM636,594h-6v1h6v-1h0ZM648,594h-6v1h6v-1h0ZM660,594h-6v1h6v-1h0ZM672,594h-6v1h6v-1h0ZM684,594h-6v1h6v-1h0ZM696,594h-6v1h6v-1h0ZM708,594h-6v1h6v-1h0ZM720,594h-6v1h6v-1h0ZM732,594h-6v1h6v-1h0ZM744,594h-6v1h6v-1h0ZM756,594h-6v1h6v-1h0ZM768,594h-6v1h6v-1h0ZM775,588h-1v6h1v-6h0ZM775,576h-1v6h1v-6h0ZM775,564h-1v6h1v-6h0ZM775,552h-1v6h1v-6h0ZM775,540h-1v6h1v-6h0ZM775,528h-1v6h1v-6h0ZM775,516h-1v6h1v-6h0ZM775,504h-1v6h1v-6h0ZM775,492h-1v6h1v-6h0ZM775,480h-1v6h1v-6h0ZM775,468h-1v6h1v-6h0ZM775,456h-1v6h1v-6h0ZM775,444h-1v6h1v-6h0ZM775,432h-1v6h1v-6h0ZM775,420h-1v6h1v-6h0ZM775,408h-1v6h1v-6h0ZM775,396h-1v6h1v-6h0ZM775,384h-1v6h1v-6h0ZM775,372h-1v6h1v-6h0ZM775,360h-1v6h1v-6h0ZM775,348h-1v6h1v-6h0ZM775,336h-1v6h1v-6h0ZM775,324h-1v6h1v-6h0ZM775,312h-1v6h1v-6h0ZM775,300h-1v6h1v-6h0ZM775,288h-1v6h1v-6h0ZM775,276h-1v6h1v-6h0ZM775,264h-1v6h1v-6h0ZM775,252h-1v6h1v-6h0ZM775,240h-1v6h1v-6h0ZM774,233h-6v1h6v-1h0ZM762,233h-6v1h6v-1h0ZM750,233h-6v1h6v-1h0ZM738,233h-6v1h6v-1h0ZM726,233h-6v1h6v-1h0ZM714,233h-6v1h6v-1h0ZM702,233h-6v1h6v-1h0ZM690,233h-6v1h6v-1h0ZM678,233h-6v1h6v-1h0ZM666,233h-6v1h6v-1h0ZM654,233h-6v1h6v-1h0ZM642,233h-6v1h6v-1h0ZM630,233h-6v1h6v-1h0ZM618,233h-6v1h6v-1h0ZM606,233h-6v1h6v-1h0ZM595,228h-1v6h1v-6h0ZM595,216h-1v6h1v-6h0ZM595,204h-1v6h1v-6h0ZM595,192h-1v6h1v-6h0ZM595,180h-1v6h1v-6h0ZM595,168h-1v6h1v-6h0ZM595,156h-1v6h1v-6h0ZM595,144h-1v6h1v-6h0ZM595,132h-1v6h1v-6h0ZM595,120h-1v6h1v-6h0ZM595,108h-1v6h1v-6h0ZM595,96h-1v6h1v-6h0ZM595,84h-1v6h1v-6h0ZM595,72h-1v6h1v-6h0ZM595,60h-1v6h1v-6h0Z"/>
  </g>
  <g>
    <path class="unit-label" d="M344.3,1303.1l-1,3h-1.3l3.2-9.4h1.5l3.2,9.4h-1.3l-1-3h-3.3ZM347.4,1302.2l-.9-2.7c-.2-.6-.4-1.2-.5-1.7h0c-.1.6-.3,1.1-.5,1.7l-.9,2.7h2.8Z"/>
    <path class="unit-label" d="M357,1296.2v8.2c0,.6,0,1.3,0,1.8h-1.1v-1.2h0c-.4.8-1.2,1.3-2.3,1.3-1.6,0-2.9-1.4-2.9-3.4,0-2.3,1.4-3.6,3-3.6s1.7.5,2,1h0v-4h1.2ZM355.8,1302.1c0-.2,0-.4,0-.5-.2-.8-.9-1.4-1.8-1.4s-2,1.1-2,2.6.7,2.5,2,2.5,1.6-.5,1.8-1.5c0-.2,0-.3,0-.5v-1.2Z"/>
    <path class="unit-label" d="M364.9,1296.2v8.2c0,.6,0,1.3,0,1.8h-1.1v-1.2h0c-.4.8-1.2,1.3-2.3,1.3-1.6,0-2.9-1.4-2.9-3.4,0-2.3,1.4-3.6,3-3.6s1.7.5,2,1h0v-4h1.2ZM363.7,1302.1c0-.2,0-.4,0-.5-.2-.8-.9-1.4-1.8-1.4s-2,1.1-2,2.6.7,2.5,2,2.5,1.6-.5,1.8-1.5c0-.2,0-.3,0-.5v-1.2Z"/>
    <path class="unit-label" d="M367.7,1302.9c0,1.7,1.1,2.4,2.3,2.4s1.4-.2,1.9-.4l.2.9c-.4.2-1.2.4-2.3.4-2.1,0-3.3-1.4-3.3-3.4s1.2-3.7,3.2-3.7,2.8,1.9,2.8,3.2,0,.4,0,.6h-4.8ZM371.3,1302.1c0-.8-.3-2-1.7-2s-1.8,1.1-1.9,2h3.6Z"/>
    <path class="unit-label" d="M374,1301.4c0-.8,0-1.5,0-2.1h1.1v1.3h0c.3-.9,1.1-1.5,1.9-1.5s.2,0,.4,0v1.2c-.1,0-.3,0-.4,0-.9,0-1.5.7-1.7,1.6,0,.2,0,.4,0,.6v3.6h-1.2v-4.7Z"/>
    <path class="unit-label" d="M382.8,1296.7v5.6c0,2.1.9,3,2.2,3s2.3-.9,2.3-3v-5.6h1.2v5.5c0,2.9-1.5,4.1-3.6,4.1s-3.4-1.1-3.4-4v-5.6h1.2Z"/>
    <path class="unit-label" d="M390.6,1301.2c0-.7,0-1.3,0-1.8h1.1v1.1h0c.3-.6,1.1-1.3,2.2-1.3s2.4.6,2.4,2.9v4h-1.2v-3.9c0-1.1-.4-2-1.6-2s-1.4.6-1.7,1.3c0,.2,0,.4,0,.6v4.1h-1.2v-4.9Z"/>
    <path class="unit-label" d="M399.7,1297.4c0,.4-.3.8-.8.8s-.7-.3-.7-.8.3-.8.8-.8.8.3.8.8ZM398.4,1306.1v-6.8h1.2v6.8h-1.2Z"/>
    <path class="unit-label" d="M403.1,1297.4v1.9h1.8v.9h-1.8v3.7c0,.8.2,1.3.9,1.3s.6,0,.7,0v.9c-.2,0-.6.2-1,.2s-1-.2-1.3-.5c-.4-.4-.5-1-.5-1.8v-3.7h-1.1v-.9h1.1v-1.6l1.2-.3Z"/>
  </g>
  <g>
    <path class="unit-label" d="M524.3,943.1l-1,3h-1.3l3.2-9.4h1.5l3.2,9.4h-1.3l-1-3h-3.3ZM527.4,942.2l-.9-2.7c-.2-.6-.4-1.2-.5-1.7h0c-.1.6-.3,1.1-.5,1.7l-.9,2.7h2.8Z"/>
    <path class="unit-label" d="M537,936.2v8.2c0,.6,0,1.3,0,1.8h-1.1v-1.2h0c-.4.8-1.2,1.3-2.3,1.3-1.6,0-2.9-1.4-2.9-3.4,0-2.3,1.4-3.6,3-3.6s1.7.5,2,1h0v-4h1.2ZM535.8,942.1c0-.2,0-.4,0-.5-.2-.8-.9-1.4-1.8-1.4s-2,1.1-2,2.6.7,2.5,2,2.5,1.6-.5,1.8-1.5c0-.2,0-.3,0-.5v-1.2Z"/>
    <path class="unit-label" d="M544.9,936.2v8.2c0,.6,0,1.3,0,1.8h-1.1v-1.2h0c-.4.8-1.2,1.3-2.3,1.3-1.6,0-2.9-1.4-2.9-3.4,0-2.3,1.4-3.6,3-3.6s1.7.5,2,1h0v-4h1.2ZM543.7,942.1c0-.2,0-.4,0-.5-.2-.8-.9-1.4-1.8-1.4s-2,1.1-2,2.6.7,2.5,2,2.5,1.6-.5,1.8-1.5c0-.2,0-.3,0-.5v-1.2Z"/>
    <path class="unit-label" d="M547.7,942.9c0,1.7,1.1,2.4,2.3,2.4s1.4-.2,1.9-.4l.2.9c-.4.2-1.2.4-2.3.4-2.1,0-3.3-1.4-3.3-3.4s1.2-3.7,3.2-3.7,2.8,1.9,2.8,3.2,0,.4,0,.6h-4.8ZM551.3,942.1c0-.8-.3-2-1.7-2s-1.8,1.1-1.9,2h3.6Z"/>
    <path class="unit-label" d="M554,941.4c0-.8,0-1.5,0-2.1h1.1v1.3h0c.3-.9,1.1-1.5,1.9-1.5s.2,0,.4,0v1.2c-.1,0-.3,0-.4,0-.9,0-1.5.7-1.7,1.6,0,.2,0,.4,0,.6v3.6h-1.2v-4.7Z"/>
    <path class="unit-label" d="M562.8,936.7v5.6c0,2.1.9,3,2.2,3s2.3-.9,2.3-3v-5.6h1.2v5.5c0,2.9-1.5,4.1-3.6,4.1s-3.4-1.1-3.4-4v-5.6h1.2Z"/>
    <path class="unit-label" d="M570.6,941.2c0-.7,0-1.3,0-1.8h1.1v1.1h0c.3-.6,1.1-1.3,2.2-1.3s2.4.6,2.4,2.9v4h-1.2v-3.9c0-1.1-.4-2-1.6-2s-1.4.6-1.7,1.3c0,.2,0,.4,0,.6v4.1h-1.2v-4.9Z"/>
    <path class="unit-label" d="M579.7,937.4c0,.4-.3.8-.8.8s-.7-.3-.7-.8.3-.8.8-.8.8.3.8.8ZM578.4,946.1v-6.8h1.2v6.8h-1.2Z"/>
    <path class="unit-label" d="M583.1,937.4v1.9h1.8v.9h-1.8v3.7c0,.8.2,1.3.9,1.3s.6,0,.7,0v.9c-.2,0-.6.2-1,.2s-1-.2-1.3-.5c-.4-.4-.5-1-.5-1.8v-3.7h-1.1v-.9h1.1v-1.6l1.2-.3Z"/>
  </g>
  <g>
    <path class="unit-label" d="M704.3,583.1l-1,3h-1.3l3.2-9.4h1.5l3.2,9.4h-1.3l-1-3h-3.3ZM707.4,582.2l-.9-2.7c-.2-.6-.4-1.2-.5-1.7h0c-.1.6-.3,1.1-.5,1.7l-.9,2.7h2.8Z"/>
    <path class="unit-label" d="M717,576.2v8.2c0,.6,0,1.3,0,1.8h-1.1v-1.2h0c-.4.8-1.2,1.3-2.3,1.3-1.6,0-2.9-1.4-2.9-3.4,0-2.3,1.4-3.6,3-3.6s1.7.5,2,1h0v-4h1.2ZM715.8,582.1c0-.2,0-.4,0-.5-.2-.8-.9-1.4-1.8-1.4s-2,1.1-2,2.6.7,2.5,2,2.5,1.6-.5,1.8-1.5c0-.2,0-.3,0-.5v-1.2Z"/>
    <path class="unit-label" d="M724.9,576.2v8.2c0,.6,0,1.3,0,1.8h-1.1v-1.2h0c-.4.8-1.2,1.3-2.3,1.3-1.6,0-2.9-1.4-2.9-3.4,0-2.3,1.4-3.6,3-3.6s1.7.5,2,1h0v-4h1.2ZM723.7,582.1c0-.2,0-.4,0-.5-.2-.8-.9-1.4-1.8-1.4s-2,1.1-2,2.6.7,2.5,2,2.5,1.6-.5,1.8-1.5c0-.2,0-.3,0-.5v-1.2Z"/>
    <path class="unit-label" d="M727.7,582.9c0,1.7,1.1,2.4,2.3,2.4s1.4-.2,1.9-.4l.2.9c-.4.2-1.2.4-2.3.4-2.1,0-3.3-1.4-3.3-3.4s1.2-3.7,3.2-3.7,2.8,1.9,2.8,3.2,0,.4,0,.6h-4.8ZM731.3,582.1c0-.8-.3-2-1.7-2s-1.8,1.1-1.9,2h3.6Z"/>
    <path class="unit-label" d="M734,581.4c0-.8,0-1.5,0-2.1h1.1v1.3h0c.3-.9,1.1-1.5,1.9-1.5s.2,0,.4,0v1.2c-.1,0-.3,0-.4,0-.9,0-1.5.7-1.7,1.6,0,.2,0,.4,0,.6v3.6h-1.2v-4.7Z"/>
    <path class="unit-label" d="M742.8,576.7v5.6c0,2.1.9,3,2.2,3s2.3-.9,2.3-3v-5.6h1.2v5.5c0,2.9-1.5,4.1-3.6,4.1s-3.4-1.1-3.4-4v-5.6h1.2Z"/>
    <path class="unit-label" d="M750.6,581.2c0-.7,0-1.3,0-1.8h1.1v1.1h0c.3-.6,1.1-1.3,2.2-1.3s2.4.6,2.4,2.9v4h-1.2v-3.9c0-1.1-.4-2-1.6-2s-1.4.6-1.7,1.3c0,.2,0,.4,0,.6v4.1h-1.2v-4.9Z"/>
    <path class="unit-label" d="M759.7,577.4c0,.4-.3.8-.8.8s-.7-.3-.7-.8.3-.8.8-.8.8.3.8.8ZM758.4,586.1v-6.8h1.2v6.8h-1.2Z"/>
    <path class="unit-label" d="M763.1,577.4v1.9h1.8v.9h-1.8v3.7c0,.8.2,1.3.9,1.3s.6,0,.7,0v.9c-.2,0-.6.2-1,.2s-1-.2-1.3-.5c-.4-.4-.5-1-.5-1.8v-3.7h-1.1v-.9h1.1v-1.6l1.2-.3Z"/>
  </g>
  <g>
    <line class="arrow-line" x1="99" y1="927" x2="99" y2="1152.1"/>
    <polygon class="arrow-head" points="96.1 1150.2 99 1161 101.9 1150.2 96.1 1150.2"/>
  </g>
  <g>
    <line class="arrow-line" x1="99" y1="837" x2="181.4" y2="886.4"/>
    <polygon class="arrow-head" points="178.2 887.9 189 891 181.2 882.9 178.2 887.9"/>
  </g>
  <g>
    <line class="arrow-line" x1="189" y1="837" x2="106.6" y2="886.4"/>
    <polygon class="arrow-head" points="106.8 882.9 99 891 109.8 887.9 106.8 882.9"/>
  </g>
  <g>
    <line class="arrow-line" x1="99" y1="837" x2="99" y2="882.1"/>
    <polygon class="arrow-head" points="96.1 880.2 99 891 101.9 880.2 96.1 880.2"/>
  </g>
  <g>
    <line class="arrow-line" x1="189" y1="837" x2="189" y2="882.1"/>
    <polygon class="arrow-head" points="186.1 880.2 189 891 191.9 880.2 186.1 880.2"/>
  </g>
  <g>
    <line class="arrow-line" x1="189" y1="927" x2="189" y2="972.1"/>
    <polygon class="arrow-head" points="186.1 970.2 189 981 191.9 970.2 186.1 970.2"/>
  </g>
  <g>
    <line class="arrow-line" x1="189" y1="1017" x2="271.4" y2="1066.4"/>
    <polygon class="arrow-head" points="268.2 1067.9 279 1071 271.2 1062.9 268.2 1067.9"/>
  </g>
  <g>
    <line class="arrow-line" x1="279" y1="1017" x2="196.6" y2="1066.4"/>
    <polygon class="arrow-head" points="196.8 1062.9 189 1071 199.8 1067.9 196.8 1062.9"/>
  </g>
  <g>
    <line class="arrow-line" x1="189" y1="1017" x2="189" y2="1062.1"/>
    <polygon class="arrow-head" points="186.1 1060.2 189 1071 191.9 1060.2 186.1 1060.2"/>
  </g>
  <g>
    <line class="arrow-line" x1="279" y1="1017" x2="279" y2="1062.1"/>
    <polygon class="arrow-head" points="276.1 1060.2 279 1071 281.9 1060.2 276.1 1060.2"/>
  </g>
  <g>
    <line class="arrow-line" x1="306" y1="1089" x2="333.1" y2="1089"/>
    <polygon class="arrow-head" points="331.2 1091.9 342 1089 331.2 1086.1 331.2 1091.9"/>
  </g>
  <g>
    <line class="arrow-line" x1="189" y1="1107" x2="189" y2="1152.1"/>
    <polygon class="arrow-head" points="186.1 1150.2 189 1161 191.9 1150.2 186.1 1150.2"/>
  </g>
  <g>
    <line class="arrow-line" x1="189" y1="1197" x2="106.6" y2="1246.4"/>
    <polygon class="arrow-head" points="106.8 1242.9 99 1251 109.8 1247.9 106.8 1242.9"/>
  </g>
  <g>
    <line class="arrow-line" x1="99" y1="1197" x2="99" y2="1242.1"/>
    <polygon class="arrow-head" points="96.1 1240.2 99 1251 101.9 1240.2 96.1 1240.2"/>
  </g>
  <g>
    <line class="arrow-line" x1="99" y1="1287" x2="99" y2="1332.1"/>
    <polygon class="arrow-head" points="96.1 1330.2 99 1341 101.9 1330.2 96.1 1330.2"/>
  </g>
  <g>
    <line class="arrow-line" x1="279" y1="567" x2="279" y2="792.1"/>
    <polygon class="arrow-head" points="276.1 790.2 279 801 281.9 790.2 276.1 790.2"/>
  </g>
  <g>
    <line class="arrow-line" x1="459" y1="207" x2="459" y2="432.1"/>
    <polygon class="arrow-head" points="456.1 430.2 459 441 461.9 430.2 456.1 430.2"/>
  </g>
  <g>
    <line class="arrow-line" x1="279" y1="477" x2="361.4" y2="526.4"/>
    <polygon class="arrow-head" points="358.2 527.9 369 531 361.2 522.9 358.2 527.9"/>
  </g>
  <g>
    <line class="arrow-line" x1="369" y1="477" x2="286.6" y2="526.4"/>
    <polygon class="arrow-head" points="286.8 522.9 279 531 289.8 527.9 286.8 522.9"/>
  </g>
  <g>
    <line class="arrow-line" x1="279" y1="477" x2="279" y2="522.1"/>
    <polygon class="arrow-head" points="276.1 520.2 279 531 281.9 520.2 276.1 520.2"/>
  </g>
  <g>
    <line class="arrow-line" x1="369" y1="477" x2="369" y2="522.1"/>
    <polygon class="arrow-head" points="366.1 520.2 369 531 371.9 520.2 366.1 520.2"/>
  </g>
  <g>
    <line class="arrow-line" x1="369" y1="567" x2="369" y2="612.1"/>
    <polygon class="arrow-head" points="366.1 610.2 369 621 371.9 610.2 366.1 610.2"/>
  </g>
  <g>
    <line class="arrow-line" x1="369" y1="657" x2="451.4" y2="706.4"/>
    <polygon class="arrow-head" points="448.2 707.9 459 711 451.2 702.9 448.2 707.9"/>
  </g>
  <g>
    <line class="arrow-line" x1="459" y1="657" x2="376.6" y2="706.4"/>
    <polygon class="arrow-head" points="376.8 702.9 369 711 379.8 707.9 376.8 702.9"/>
  </g>
  <g>
    <line class="arrow-line" x1="369" y1="657" x2="369" y2="702.1"/>
    <polygon class="arrow-head" points="366.1 700.2 369 711 371.9 700.2 366.1 700.2"/>
  </g>
  <g>
    <line class="arrow-line" x1="459" y1="657" x2="459" y2="702.1"/>
    <polygon class="arrow-head" points="456.1 700.2 459 711 461.9 700.2 456.1 700.2"/>
  </g>
  <g>
    <line class="arrow-line" x1="486" y1="729" x2="513.1" y2="729"/>
    <polygon class="arrow-head" points="511.2 731.9 522 729 511.2 726.1 511.2 731.9"/>
  </g>
  <g>
    <line class="arrow-line" x1="369" y1="747" x2="369" y2="792.1"/>
    <polygon class="arrow-head" points="366.1 790.2 369 801 371.9 790.2 366.1 790.2"/>
  </g>
  <g>
    <line class="arrow-line" x1="369" y1="837" x2="286.6" y2="886.4"/>
    <polygon class="arrow-head" points="286.8 882.9 279 891 289.8 887.9 286.8 882.9"/>
  </g>
  <g>
    <line class="arrow-line" x1="279" y1="837" x2="279" y2="882.1"/>
    <polygon class="arrow-head" points="276.1 880.2 279 891 281.9 880.2 276.1 880.2"/>
  </g>
  <g>
    <line class="arrow-line" x1="279" y1="927" x2="279" y2="972.1"/>
    <polygon class="arrow-head" points="276.1 970.2 279 981 281.9 970.2 276.1 970.2"/>
  </g>
  <g>
    <line class="arrow-line" x1="459" y1="117" x2="541.4" y2="166.4"/>
    <polygon class="arrow-head" points="538.2 167.9 549 171 541.2 162.9 538.2 167.9"/>
  </g>
  <g>
    <line class="arrow-line" x1="549" y1="117" x2="466.6" y2="166.4"/>
    <polygon class="arrow-head" points="466.8 162.9 459 171 469.8 167.9 466.8 162.9"/>
  </g>
  <g>
    <line class="arrow-line" x1="459" y1="117" x2="459" y2="162.1"/>
    <polygon class="arrow-head" points="456.1 160.2 459 171 461.9 160.2 456.1 160.2"/>
  </g>
  <g>
    <line class="arrow-line" x1="549" y1="117" x2="549" y2="162.1"/>
    <polygon class="arrow-head" points="546.1 160.2 549 171 551.9 160.2 546.1 160.2"/>
  </g>
  <g>
    <line class="arrow-line" x1="549" y1="207" x2="549" y2="252.1"/>
    <polygon class="arrow-head" points="546.1 250.2 549 261 551.9 250.2 546.1 250.2"/>
  </g>
  <g>
    <line class="arrow-line" x1="549" y1="297" x2="631.4" y2="346.4"/>
    <polygon class="arrow-head" points="628.2 347.9 639 351 631.2 342.9 628.2 347.9"/>
  </g>
  <g>
    <line class="arrow-line" x1="639" y1="297" x2="556.6" y2="346.4"/>
    <polygon class="arrow-head" points="556.8 342.9 549 351 559.8 347.9 556.8 342.9"/>
  </g>
  <g>
    <line class="arrow-line" x1="549" y1="297" x2="549" y2="342.1"/>
    <polygon class="arrow-head" points="546.1 340.2 549 351 551.9 340.2 546.1 340.2"/>
  </g>
  <g>
    <line class="arrow-line" x1="639" y1="297" x2="639" y2="342.1"/>
    <polygon class="arrow-head" points="636.1 340.2 639 351 641.9 340.2 636.1 340.2"/>
  </g>
  <g>
    <line class="arrow-line" x1="666" y1="369" x2="693.1" y2="369"/>
    <polygon class="arrow-head" points="691.2 371.9 702 369 691.2 366.1 691.2 371.9"/>
  </g>
  <g>
    <line class="arrow-line" x1="549" y1="387" x2="549" y2="432.1"/>
    <polygon class="arrow-head" points="546.1 430.2 549 441 551.9 430.2 546.1 430.2"/>
  </g>
  <g>
    <line class="arrow-line" x1="549" y1="477" x2="466.6" y2="526.4"/>
    <polygon class="arrow-head" points="466.8 522.9 459 531 469.8 527.9 466.8 522.9"/>
  </g>
  <g>
    <line class="arrow-line" x1="459" y1="477" x2="459" y2="522.1"/>
    <polygon class="arrow-head" points="456.1 520.2 459 531 461.9 520.2 456.1 520.2"/>
  </g>
  <g>
    <line class="arrow-line" x1="459" y1="567" x2="459" y2="612.1"/>
    <polygon class="arrow-head" points="456.1 610.2 459 621 461.9 610.2 456.1 610.2"/>
  </g>
  <g>
    <line class="arrow-line" x1="756" y1="189" x2="783.1" y2="189"/>
    <polygon class="arrow-head" points="781.2 191.9 792 189 781.2 186.1 781.2 191.9"/>
  </g>
  <g>
    <line class="arrow-line" x1="639" y1="117" x2="721.4" y2="166.4"/>
    <polygon class="arrow-head" points="718.2 167.9 729 171 721.2 162.9 718.2 167.9"/>
  </g>
  <g>
    <line class="arrow-line" x1="729" y1="117" x2="646.6" y2="166.4"/>
    <polygon class="arrow-head" points="646.8 162.9 639 171 649.8 167.9 646.8 162.9"/>
  </g>
  <g>
    <line class="arrow-line" x1="639" y1="117" x2="639" y2="162.1"/>
    <polygon class="arrow-head" points="636.1 160.2 639 171 641.9 160.2 636.1 160.2"/>
  </g>
  <g>
    <line class="arrow-line" x1="729" y1="117" x2="729" y2="162.1"/>
    <polygon class="arrow-head" points="726.1 160.2 729 171 731.9 160.2 726.1 160.2"/>
  </g>
  <g>
    <line class="arrow-line" x1="639" y1="207" x2="639" y2="252.1"/>
    <polygon class="arrow-head" points="636.1 250.2 639 261 641.9 250.2 636.1 250.2"/>
  </g>
  <g>
    <rect class="and-box" x="72" y="891" width="54" height="36"/>
    <g>
      <path class="and-text" d="M84.9,912.7l-1.3,3.8h-1.6l4.1-12.1h1.9l4.1,12.1h-1.7l-1.3-3.8h-4.3ZM88.9,911.5l-1.2-3.5c-.3-.8-.5-1.5-.6-2.2h0c-.2.7-.4,1.5-.6,2.2l-1.2,3.5h3.7Z"/>
      <path class="and-text" d="M94,916.5v-12.1h1.7l3.9,6.1c.9,1.4,1.6,2.7,2.2,3.9h0c-.1-1.6-.2-3.1-.2-5v-5.1h1.5v12.1h-1.6l-3.9-6.2c-.8-1.3-1.7-2.7-2.3-4.1h0c0,1.5.1,3,.1,5v5.2h-1.5Z"/>
      <path class="and-text" d="M105.8,904.6c1-.1,2.1-.3,3.3-.3,2.3,0,3.9.5,4.9,1.5,1.1,1,1.7,2.4,1.7,4.4s-.6,3.6-1.7,4.7c-1.1,1.1-3,1.7-5.4,1.7s-2.1,0-2.8-.1v-11.9ZM107.4,915.3c.4,0,1,0,1.6,0,3.3,0,5.2-1.9,5.2-5.1,0-2.9-1.6-4.7-4.9-4.7s-1.4,0-1.8.2v9.6Z"/>
    </g>
  </g>
  <g>
    <rect class="xor-box" x="162" y="891" width="54" height="36"/>
    <g>
      <path class="xor-text" d="M181.1,916.5l-1.5-2.7c-.6-1-1-1.7-1.4-2.4h0c-.3.7-.7,1.4-1.3,2.4l-1.5,2.7h-1.8l3.7-6.1-3.6-6h1.8l1.6,2.8c.4.8.8,1.4,1.1,2.1h0c.3-.7.6-1.3,1.1-2.1l1.7-2.8h1.8l-3.7,5.9,3.8,6.2h-1.8Z"/>
      <path class="xor-text" d="M194.6,910.3c0,4.2-2.5,6.4-5.6,6.4s-5.5-2.5-5.5-6.2,2.4-6.4,5.6-6.4,5.5,2.5,5.5,6.1ZM185.2,910.5c0,2.6,1.4,4.9,3.9,4.9s3.9-2.3,3.9-5-1.3-4.9-3.9-4.9-3.9,2.4-3.9,5.1Z"/>
      <path class="xor-text" d="M196.6,904.6c.8-.2,1.9-.3,3-.3,1.7,0,2.8.3,3.5,1,.6.5,1,1.4,1,2.3,0,1.6-1,2.7-2.3,3.1h0c.9.4,1.5,1.2,1.8,2.5.4,1.7.7,2.9.9,3.3h-1.6c-.2-.3-.5-1.4-.8-2.9-.4-1.7-1-2.3-2.4-2.4h-1.5v5.3h-1.6v-12ZM198.2,910.1h1.6c1.7,0,2.7-.9,2.7-2.3s-1.1-2.3-2.8-2.3c-.8,0-1.3,0-1.5.1v4.4Z"/>
    </g>
  </g>
  <g>
    <rect class="x-box" x="72" y="801" width="54" height="36"/>
    <g>
      <path class="x-text" d="M89.6,817.6l1.4,2.2c.4.6.7,1.1,1,1.7h0c.3-.6.7-1.1,1-1.7l1.4-2.2h2l-3.5,4.9,3.6,5.2h-2.1l-1.5-2.3c-.4-.6-.7-1.2-1.1-1.8h0c-.3.6-.7,1.2-1.1,1.8l-1.5,2.3h-2l3.6-5.2-3.4-5h2.1Z"/>
      <path class="x-text" d="M98.5,827.8v-14.2h2l4.5,7.2c1,1.7,1.9,3.1,2.5,4.6h0c-.2-1.9-.2-3.6-.2-5.8v-5.9h1.7v14.2h-1.8l-4.5-7.2c-1-1.6-1.9-3.2-2.6-4.7h0c.1,1.8.1,3.5.1,5.9v6h-1.7Z"/>
    </g>
  </g>
  <g>
    <rect class="y-box" x="162" y="801" width="54" height="36"/>
    <g>
      <path class="y-text" d="M179.3,817.6l2.2,6c.2.7.5,1.5.7,2.1h0c.2-.6.4-1.4.7-2.1l2-6h2l-2.8,7.2c-1.3,3.5-2.2,5.3-3.5,6.4-.9.8-1.8,1.1-2.3,1.2l-.5-1.6c.5-.1,1.1-.4,1.6-.9.5-.4,1.1-1.1,1.6-2.1,0-.2.1-.3.1-.4s0-.3-.1-.5l-3.8-9.4h2Z"/>
      <path class="y-text" d="M188.6,827.8v-14.2h2l4.5,7.2c1,1.7,1.9,3.1,2.5,4.6h0c-.2-1.9-.2-3.6-.2-5.8v-5.9h1.7v14.2h-1.8l-4.5-7.2c-1-1.6-1.9-3.2-2.6-4.7h0c.1,1.8.1,3.5.1,5.9v6h-1.7Z"/>
    </g>
  </g>
  <g>
    <rect class="w-box" x="162" y="981" width="54" height="36"/>
    <g>
      <path class="w-text" d="M183.4,1003.8v-.5c-.2-1.1.2-2.4,1.3-3.6.9-1.1,1.5-1.9,1.5-2.9s-.7-1.8-2-1.8c-.8,0-1.6.3-2.1.7l-.5-1.3c.7-.5,1.9-.8,3-.8,2.4,0,3.5,1.5,3.5,3.1s-.8,2.5-1.8,3.7c-.9,1.1-1.3,2-1.2,3.1v.5s-1.6,0-1.6,0ZM183,1006.7c0-.8.5-1.3,1.3-1.3s1.2.5,1.2,1.3-.5,1.3-1.3,1.3-1.2-.6-1.2-1.3Z"/>
      <path class="w-text" d="M192,1003.8v-.5c-.2-1.1.2-2.4,1.3-3.6.9-1.1,1.5-1.9,1.5-2.9s-.7-1.8-2-1.8c-.8,0-1.6.3-2.1.7l-.5-1.3c.7-.5,1.9-.8,3-.8,2.4,0,3.5,1.5,3.5,3.1s-.8,2.5-1.8,3.7c-.9,1.1-1.3,2-1.2,3.1v.5s-1.6,0-1.6,0ZM191.5,1006.7c0-.8.5-1.3,1.3-1.3s1.2.5,1.2,1.3-.5,1.3-1.3,1.3-1.2-.6-1.2-1.3Z"/>
    </g>
  </g>
  <g>
    <rect class="w-box" x="252" y="981" width="54" height="36"/>
    <g>
      <path class="w-text" d="M273.4,1003.8v-.5c-.2-1.1.2-2.4,1.3-3.6.9-1.1,1.5-1.9,1.5-2.9s-.7-1.8-2-1.8c-.8,0-1.6.3-2.1.7l-.5-1.3c.7-.5,1.9-.8,3-.8,2.4,0,3.5,1.5,3.5,3.1s-.8,2.5-1.8,3.7c-.9,1.1-1.3,2-1.2,3.1v.5s-1.6,0-1.6,0ZM273,1006.7c0-.8.5-1.3,1.3-1.3s1.2.5,1.2,1.3-.5,1.3-1.3,1.3-1.2-.6-1.2-1.3Z"/>
      <path class="w-text" d="M282,1003.8v-.5c-.2-1.1.2-2.4,1.3-3.6.9-1.1,1.5-1.9,1.5-2.9s-.7-1.8-2-1.8c-.8,0-1.6.3-2.1.7l-.5-1.3c.7-.5,1.9-.8,3-.8,2.4,0,3.5,1.5,3.5,3.1s-.8,2.5-1.8,3.7c-.9,1.1-1.3,2-1.2,3.1v.5s-1.6,0-1.6,0ZM281.5,1006.7c0-.8.5-1.3,1.3-1.3s1.2.5,1.2,1.3-.5,1.3-1.3,1.3-1.2-.6-1.2-1.3Z"/>
    </g>
  </g>
  <g>
    <rect class="xor-box" x="252" y="1071" width="54" height="36"/>
    <g>
      <path class="xor-text" d="M271.1,1096.5l-1.5-2.7c-.6-1-1-1.7-1.4-2.4h0c-.3.7-.7,1.4-1.3,2.4l-1.5,2.7h-1.8l3.7-6.1-3.6-6h1.8l1.6,2.8c.4.8.8,1.4,1.1,2.1h0c.3-.7.6-1.3,1.1-2.1l1.7-2.8h1.8l-3.7,5.9,3.8,6.2h-1.8Z"/>
      <path class="xor-text" d="M284.6,1090.3c0,4.2-2.5,6.4-5.6,6.4s-5.5-2.5-5.5-6.2,2.4-6.4,5.6-6.4,5.5,2.5,5.5,6.1ZM275.2,1090.5c0,2.6,1.4,4.9,3.9,4.9s3.9-2.3,3.9-5-1.3-4.9-3.9-4.9-3.9,2.4-3.9,5.1Z"/>
      <path class="xor-text" d="M286.6,1084.6c.8-.2,1.9-.3,3-.3,1.7,0,2.8.3,3.5,1,.6.5,1,1.4,1,2.3,0,1.6-1,2.7-2.3,3.1h0c.9.4,1.5,1.2,1.8,2.5.4,1.7.7,2.9.9,3.3h-1.6c-.2-.3-.5-1.4-.8-2.9-.4-1.7-1-2.3-2.4-2.4h-1.5v5.3h-1.6v-12ZM288.2,1090.1h1.6c1.7,0,2.7-.9,2.7-2.3s-1.1-2.3-2.8-2.3c-.8,0-1.3,0-1.5.1v4.4Z"/>
    </g>
  </g>
  <g>
    <rect class="and-box" x="162" y="1071" width="54" height="36"/>
    <g>
      <path class="and-text" d="M174.9,1092.7l-1.3,3.8h-1.6l4.1-12.1h1.9l4.1,12.1h-1.7l-1.3-3.8h-4.3ZM178.9,1091.5l-1.2-3.5c-.3-.8-.5-1.5-.6-2.2h0c-.2.7-.4,1.5-.6,2.2l-1.2,3.5h3.7Z"/>
      <path class="and-text" d="M184,1096.5v-12.1h1.7l3.9,6.1c.9,1.4,1.6,2.7,2.2,3.9h0c-.1-1.6-.2-3.1-.2-5v-5.1h1.5v12.1h-1.6l-3.9-6.2c-.8-1.3-1.7-2.7-2.3-4.1h0c0,1.5.1,3,.1,5v5.2h-1.5Z"/>
      <path class="and-text" d="M195.8,1084.6c1-.1,2.1-.3,3.3-.3,2.3,0,3.9.5,4.9,1.5,1.1,1,1.7,2.4,1.7,4.4s-.6,3.6-1.7,4.7c-1.1,1.1-3,1.7-5.4,1.7s-2.1,0-2.8-.1v-11.9ZM197.4,1095.3c.4,0,1,0,1.6,0,3.3,0,5.2-1.9,5.2-5.1,0-2.9-1.6-4.7-4.9-4.7s-1.4,0-1.8.2v9.6Z"/>
    </g>
  </g>
  <g>
    <rect class="z-box" x="342" y="1071" width="54" height="36"/>
    <g>
      <path class="z-text" d="M358,1096.7l4.6-6c.4-.5.9-1,1.3-1.6h0s-5.5,0-5.5,0v-1.5h7.7v1.2s-4.6,5.9-4.6,5.9c-.4.6-.8,1.1-1.3,1.6h0s5.9,0,5.9,0v1.5h-8.3v-1.1Z"/>
      <path class="z-text" d="M368.2,1097.8v-14.2h2l4.5,7.2c1.1,1.7,1.9,3.1,2.5,4.6h0c-.2-1.9-.2-3.6-.2-5.8v-5.9h1.7v14.2h-1.8l-4.5-7.2c-1-1.6-1.9-3.2-2.6-4.7h0c.1,1.8.1,3.5.1,5.9v6h-1.7Z"/>
    </g>
  </g>
  <g>
    <rect class="w-box" x="162" y="1161" width="54" height="36"/>
    <g>
      <path class="w-text" d="M183.4,1183.8v-.5c-.2-1.1.2-2.4,1.3-3.6.9-1.1,1.5-1.9,1.5-2.9s-.7-1.8-2-1.8c-.8,0-1.6.3-2.1.7l-.5-1.3c.7-.5,1.9-.8,3-.8,2.4,0,3.5,1.5,3.5,3.1s-.8,2.5-1.8,3.7c-.9,1.1-1.3,2-1.2,3.1v.5s-1.6,0-1.6,0ZM183,1186.7c0-.8.5-1.3,1.3-1.3s1.2.5,1.2,1.3-.5,1.3-1.3,1.3-1.2-.6-1.2-1.3Z"/>
      <path class="w-text" d="M192,1183.8v-.5c-.2-1.1.2-2.4,1.3-3.6.9-1.1,1.5-1.9,1.5-2.9s-.7-1.8-2-1.8c-.8,0-1.6.3-2.1.7l-.5-1.3c.7-.5,1.9-.8,3-.8,2.4,0,3.5,1.5,3.5,3.1s-.8,2.5-1.8,3.7c-.9,1.1-1.3,2-1.2,3.1v.5s-1.6,0-1.6,0ZM191.5,1186.7c0-.8.5-1.3,1.3-1.3s1.2.5,1.2,1.3-.5,1.3-1.3,1.3-1.2-.6-1.2-1.3Z"/>
    </g>
  </g>
  <g>
    <rect class="w-box" x="72" y="1161" width="54" height="36"/>
    <g>
      <path class="w-text" d="M93.4,1183.8v-.5c-.2-1.1.2-2.4,1.3-3.6.9-1.1,1.5-1.9,1.5-2.9s-.7-1.8-2-1.8c-.8,0-1.6.3-2.1.7l-.5-1.3c.7-.5,1.9-.8,3-.8,2.4,0,3.5,1.5,3.5,3.1s-.8,2.5-1.8,3.7c-.9,1.1-1.3,2-1.2,3.1v.5s-1.6,0-1.6,0ZM93,1186.7c0-.8.5-1.3,1.3-1.3s1.2.5,1.2,1.3-.5,1.3-1.3,1.3-1.2-.6-1.2-1.3Z"/>
      <path class="w-text" d="M102,1183.8v-.5c-.2-1.1.2-2.4,1.3-3.6.9-1.1,1.5-1.9,1.5-2.9s-.7-1.8-2-1.8c-.8,0-1.6.3-2.1.7l-.5-1.3c.7-.5,1.9-.8,3-.8,2.4,0,3.5,1.5,3.5,3.1s-.8,2.5-1.8,3.7c-.9,1.1-1.3,2-1.2,3.1v.5s-1.6,0-1.6,0ZM101.5,1186.7c0-.8.5-1.3,1.3-1.3s1.2.5,1.2,1.3-.5,1.3-1.3,1.3-1.2-.6-1.2-1.3Z"/>
    </g>
  </g>
  <g>
    <rect class="or-box" x="72" y="1251" width="54" height="36"/>
    <g>
      <path class="or-text" d="M99.7,1270.3c0,4.2-2.5,6.4-5.6,6.4s-5.5-2.5-5.5-6.2,2.4-6.4,5.6-6.4,5.5,2.5,5.5,6.1ZM90.3,1270.5c0,2.6,1.4,4.9,3.9,4.9s3.9-2.3,3.9-5-1.3-4.9-3.9-4.9-3.9,2.4-3.9,5.1Z"/>
      <path class="or-text" d="M101.7,1264.6c.8-.2,1.9-.3,3-.3,1.7,0,2.8.3,3.5,1,.6.5,1,1.4,1,2.3,0,1.6-1,2.7-2.3,3.1h0c.9.4,1.5,1.2,1.8,2.5.4,1.7.7,2.9.9,3.3h-1.6c-.2-.3-.5-1.4-.8-2.9-.4-1.7-1-2.3-2.4-2.4h-1.5v5.3h-1.6v-12ZM103.3,1270.1h1.6c1.7,0,2.7-.9,2.7-2.3s-1.1-2.3-2.8-2.3c-.8,0-1.3,0-1.5.1v4.4Z"/>
    </g>
  </g>
  <g>
    <rect class="z-box" x="72" y="1341" width="54" height="36"/>
    <g>
      <path class="z-text" d="M76.3,1366.7l4.6-6c.4-.5.9-1,1.3-1.6h0s-5.5,0-5.5,0v-1.5h7.7v1.2s-4.6,5.9-4.6,5.9c-.4.6-.8,1.1-1.3,1.6h0s5.9,0,5.9,0v1.5h-8.3v-1.1Z"/>
      <path class="z-text" d="M86.5,1367.8v-14.2h2l4.5,7.2c1.1,1.7,1.9,3.1,2.5,4.6h0c-.2-1.9-.2-3.6-.2-5.8v-5.9h1.7v14.2h-1.8l-4.5-7.2c-1-1.6-1.9-3.2-2.6-4.7h0c.1,1.8.1,3.5.1,5.9v6h-1.7Z"/>
      <path class="z-text" d="M105.7,1356.6v4.9h4.7v1.3h-4.7v5h-1.3v-5h-4.7v-1.3h4.7v-4.9h1.3Z"/>
      <path class="z-text" d="M116.2,1355.9h0l-2.4,1.3-.4-1.4,3-1.6h1.6v13.6h-1.8v-11.9Z"/>
    </g>
  </g>
  <g>
    <rect class="and-box" x="252" y="531" width="54" height="36"/>
    <g>
      <path class="and-text" d="M264.9,552.7l-1.3,3.8h-1.6l4.1-12.1h1.9l4.1,12.1h-1.7l-1.3-3.8h-4.3ZM268.9,551.5l-1.2-3.5c-.3-.8-.5-1.5-.6-2.2h0c-.2.7-.4,1.5-.6,2.2l-1.2,3.5h3.7Z"/>
      <path class="and-text" d="M274,556.5v-12.1h1.7l3.9,6.1c.9,1.4,1.6,2.7,2.2,3.9h0c-.1-1.6-.2-3.1-.2-5v-5.1h1.5v12.1h-1.6l-3.9-6.2c-.8-1.4-1.7-2.7-2.3-4.1h0c0,1.5.1,3,.1,5v5.2h-1.5Z"/>
      <path class="and-text" d="M285.8,544.6c1-.1,2.1-.3,3.3-.3,2.3,0,3.9.5,4.9,1.5,1.1,1,1.7,2.4,1.7,4.4s-.6,3.6-1.7,4.7c-1.1,1.1-3,1.7-5.4,1.7s-2.1,0-2.8-.1v-11.9ZM287.4,555.3c.4,0,1,0,1.6,0,3.3,0,5.2-1.9,5.2-5.1,0-2.9-1.6-4.7-4.9-4.7s-1.4,0-1.8.2v9.6Z"/>
    </g>
  </g>
  <g>
    <rect class="xor-box" x="342" y="531" width="54" height="36"/>
    <g>
      <path class="xor-text" d="M361.1,556.5l-1.5-2.7c-.6-1-1-1.7-1.4-2.4h0c-.3.7-.7,1.4-1.3,2.4l-1.5,2.7h-1.8l3.7-6.1-3.6-6h1.8l1.6,2.8c.4.8.8,1.4,1.1,2.1h0c.3-.7.6-1.3,1.1-2.1l1.7-2.8h1.8l-3.7,5.9,3.8,6.2h-1.8Z"/>
      <path class="xor-text" d="M374.6,550.3c0,4.2-2.5,6.4-5.6,6.4s-5.5-2.5-5.5-6.2,2.4-6.4,5.6-6.4,5.5,2.5,5.5,6.1ZM365.2,550.5c0,2.6,1.4,4.9,3.9,4.9s3.9-2.3,3.9-5-1.3-4.9-3.9-4.9-3.9,2.4-3.9,5.1Z"/>
      <path class="xor-text" d="M376.6,544.6c.8-.2,1.9-.3,3-.3,1.7,0,2.8.3,3.5,1,.6.5,1,1.4,1,2.3,0,1.6-1,2.7-2.3,3.1h0c.9.4,1.5,1.2,1.8,2.5.4,1.7.7,2.9.9,3.3h-1.6c-.2-.3-.5-1.4-.8-2.9-.4-1.7-1-2.3-2.4-2.4h-1.5v5.3h-1.6v-12ZM378.2,550.1h1.6c1.7,0,2.7-.9,2.7-2.3s-1.1-2.3-2.8-2.3c-.8,0-1.3,0-1.5.1v4.4Z"/>
    </g>
  </g>
  <g>
    <rect class="x-box" x="252" y="441" width="54" height="36"/>
    <g>
      <path class="x-text" d="M271.1,457.6l1.4,2.2c.4.6.7,1.1,1,1.7h0c.3-.6.7-1.1,1-1.7l1.4-2.2h2l-3.5,4.9,3.6,5.2h-2.1l-1.5-2.3c-.4-.6-.7-1.2-1.1-1.8h0c-.3.6-.7,1.2-1.1,1.8l-1.5,2.3h-2l3.6-5.2-3.4-5h2.1Z"/>
      <path class="x-text" d="M279.4,467.8v-1.1l1.4-1.4c3.5-3.3,5.1-5.1,5.1-7.1,0-1.4-.7-2.7-2.7-2.7s-2.3.6-2.9,1.2l-.6-1.3c.9-.8,2.3-1.4,3.9-1.4,2.9,0,4.2,2,4.2,4s-1.8,4.6-4.7,7.3l-1.1,1h0s6.1,0,6.1,0v1.5h-8.7Z"/>
    </g>
  </g>
  <g>
    <rect class="y-box" x="342" y="441" width="54" height="36"/>
    <g>
      <path class="y-text" d="M360.9,457.6l2.2,6c.2.7.5,1.5.7,2.1h0c.2-.6.4-1.4.7-2.1l2-6h2l-2.8,7.2c-1.3,3.5-2.2,5.3-3.5,6.4-.9.8-1.8,1.1-2.3,1.2l-.5-1.6c.5-.1,1.1-.4,1.6-.9.5-.4,1.1-1.1,1.6-2.1s.1-.3.1-.4,0-.3-.1-.5l-3.8-9.4h2Z"/>
      <path class="y-text" d="M369.5,467.8v-1.1l1.4-1.4c3.5-3.3,5.1-5.1,5.1-7.1,0-1.4-.7-2.7-2.7-2.7s-2.3.6-2.9,1.2l-.6-1.3c.9-.8,2.3-1.4,3.9-1.4,2.9,0,4.2,2,4.2,4s-1.8,4.6-4.7,7.3l-1.1,1h0s6.1,0,6.1,0v1.5h-8.7Z"/>
    </g>
  </g>
  <g>
    <rect class="w-box" x="342" y="621" width="54" height="36"/>
    <g>
      <path class="w-text" d="M363.4,643.8v-.5c-.2-1.1.2-2.4,1.3-3.6.9-1.1,1.5-1.9,1.5-2.9s-.7-1.8-2-1.8c-.8,0-1.6.3-2.1.7l-.5-1.3c.7-.5,1.9-.8,3-.8,2.4,0,3.5,1.5,3.5,3.1s-.8,2.5-1.8,3.7c-.9,1.1-1.3,2-1.2,3.1v.5s-1.6,0-1.6,0ZM363,646.7c0-.8.5-1.3,1.3-1.3s1.2.5,1.2,1.3-.5,1.3-1.3,1.3-1.2-.6-1.2-1.3Z"/>
      <path class="w-text" d="M372,643.8v-.5c-.2-1.1.2-2.4,1.3-3.6.9-1.1,1.5-1.9,1.5-2.9s-.7-1.8-2-1.8c-.8,0-1.6.3-2.1.7l-.5-1.3c.7-.5,1.9-.8,3-.8,2.4,0,3.5,1.5,3.5,3.1s-.8,2.5-1.8,3.7c-.9,1.1-1.3,2-1.2,3.1v.5s-1.6,0-1.6,0ZM371.5,646.7c0-.8.5-1.3,1.3-1.3s1.2.5,1.2,1.3-.5,1.3-1.3,1.3-1.2-.6-1.2-1.3Z"/>
    </g>
  </g>
  <g>
    <rect class="w-box" x="432" y="621" width="54" height="36"/>
    <g>
      <path class="w-text" d="M453.4,643.8v-.5c-.2-1.1.2-2.4,1.3-3.6.9-1.1,1.5-1.9,1.5-2.9s-.7-1.8-2-1.8c-.8,0-1.6.3-2.1.7l-.5-1.3c.7-.5,1.9-.8,3-.8,2.4,0,3.5,1.5,3.5,3.1s-.8,2.5-1.8,3.7c-.9,1.1-1.3,2-1.2,3.1v.5s-1.6,0-1.6,0ZM453,646.7c0-.8.5-1.3,1.3-1.3s1.2.5,1.2,1.3-.5,1.3-1.3,1.3-1.2-.6-1.2-1.3Z"/>
      <path class="w-text" d="M462,643.8v-.5c-.2-1.1.2-2.4,1.3-3.6.9-1.1,1.5-1.9,1.5-2.9s-.7-1.8-2-1.8c-.8,0-1.6.3-2.1.7l-.5-1.3c.7-.5,1.9-.8,3-.8,2.4,0,3.5,1.5,3.5,3.1s-.8,2.5-1.8,3.7c-.9,1.1-1.3,2-1.2,3.1v.5s-1.6,0-1.6,0ZM461.5,646.7c0-.8.5-1.3,1.3-1.3s1.2.5,1.2,1.3-.5,1.3-1.3,1.3-1.2-.6-1.2-1.3Z"/>
    </g>
  </g>
  <g>
    <rect class="xor-box" x="432" y="711" width="54" height="36"/>
    <g>
      <path class="xor-text" d="M451.1,736.5l-1.5-2.7c-.6-1-1-1.7-1.4-2.4h0c-.3.7-.7,1.4-1.3,2.4l-1.5,2.7h-1.8l3.7-6.1-3.6-6h1.8l1.6,2.8c.4.8.8,1.4,1.1,2.1h0c.3-.7.6-1.3,1.1-2.1l1.7-2.8h1.8l-3.7,5.9,3.8,6.2h-1.8Z"/>
      <path class="xor-text" d="M464.6,730.3c0,4.2-2.5,6.4-5.6,6.4s-5.5-2.5-5.5-6.2,2.4-6.4,5.6-6.4,5.5,2.5,5.5,6.1ZM455.2,730.5c0,2.6,1.4,4.9,3.9,4.9s3.9-2.3,3.9-5-1.3-4.9-3.9-4.9-3.9,2.4-3.9,5.1Z"/>
      <path class="xor-text" d="M466.6,724.6c.8-.2,1.9-.3,3-.3,1.7,0,2.8.3,3.5,1,.6.5,1,1.4,1,2.3,0,1.6-1,2.7-2.3,3.1h0c.9.4,1.5,1.2,1.8,2.5.4,1.7.7,2.9.9,3.3h-1.6c-.2-.3-.5-1.4-.8-2.9-.4-1.7-1-2.3-2.4-2.4h-1.5v5.3h-1.6v-12ZM468.2,730.1h1.6c1.7,0,2.7-.9,2.7-2.3s-1.1-2.3-2.8-2.3c-.8,0-1.3,0-1.5.1v4.4Z"/>
    </g>
  </g>
  <g>
    <rect class="and-box" x="342" y="711" width="54" height="36"/>
    <g>
      <path class="and-text" d="M354.9,732.7l-1.3,3.8h-1.6l4.1-12.1h1.9l4.1,12.1h-1.7l-1.3-3.8h-4.3ZM358.9,731.5l-1.2-3.5c-.3-.8-.5-1.5-.6-2.2h0c-.2.7-.4,1.5-.6,2.2l-1.2,3.5h3.7Z"/>
      <path class="and-text" d="M364,736.5v-12.1h1.7l3.9,6.1c.9,1.4,1.6,2.7,2.2,3.9h0c-.1-1.6-.2-3.1-.2-5v-5.1h1.5v12.1h-1.6l-3.9-6.2c-.8-1.3-1.7-2.7-2.3-4.1h0c0,1.5.1,3,.1,5v5.2h-1.5Z"/>
      <path class="and-text" d="M375.8,724.6c1-.1,2.1-.3,3.3-.3,2.3,0,3.9.5,4.9,1.5,1.1,1,1.7,2.4,1.7,4.4s-.6,3.6-1.7,4.7c-1.1,1.1-3,1.7-5.4,1.7s-2.1,0-2.8-.1v-11.9ZM377.4,735.3c.4,0,1,0,1.6,0,3.3,0,5.2-1.9,5.2-5.1,0-2.9-1.6-4.7-4.9-4.7s-1.4,0-1.8.2v9.6Z"/>
    </g>
  </g>
  <g>
    <rect class="z-box" x="522" y="711" width="54" height="36"/>
    <g>
      <path class="z-text" d="M539.5,736.7l4.6-6c.4-.5.9-1,1.3-1.6h0s-5.5,0-5.5,0v-1.5h7.7v1.2s-4.6,5.9-4.6,5.9c-.4.6-.8,1.1-1.3,1.6h0s5.9,0,5.9,0v1.5h-8.3v-1.1Z"/>
      <path class="z-text" d="M549.1,737.8v-1.1l1.4-1.4c3.5-3.3,5.1-5.1,5.1-7.1,0-1.4-.7-2.7-2.7-2.7s-2.3.6-2.9,1.2l-.6-1.3c.9-.8,2.3-1.4,3.9-1.4,2.9,0,4.2,2,4.2,4s-1.8,4.6-4.7,7.3l-1.1,1h0s6.1,0,6.1,0v1.5h-8.7Z"/>
    </g>
  </g>
  <g>
    <rect class="w-box" x="342" y="801" width="54" height="36"/>
    <g>
      <path class="w-text" d="M363.4,823.8v-.5c-.2-1.1.2-2.4,1.3-3.6.9-1.1,1.5-1.9,1.5-2.9s-.7-1.8-2-1.8c-.8,0-1.6.3-2.1.7l-.5-1.3c.7-.5,1.9-.8,3-.8,2.4,0,3.5,1.5,3.5,3.1s-.8,2.5-1.8,3.7c-.9,1.1-1.3,2-1.2,3.1v.5s-1.6,0-1.6,0ZM363,826.7c0-.8.5-1.3,1.3-1.3s1.2.5,1.2,1.3-.5,1.3-1.3,1.3-1.2-.6-1.2-1.3Z"/>
      <path class="w-text" d="M372,823.8v-.5c-.2-1.1.2-2.4,1.3-3.6.9-1.1,1.5-1.9,1.5-2.9s-.7-1.8-2-1.8c-.8,0-1.6.3-2.1.7l-.5-1.3c.7-.5,1.9-.8,3-.8,2.4,0,3.5,1.5,3.5,3.1s-.8,2.5-1.8,3.7c-.9,1.1-1.3,2-1.2,3.1v.5s-1.6,0-1.6,0ZM371.5,826.7c0-.8.5-1.3,1.3-1.3s1.2.5,1.2,1.3-.5,1.3-1.3,1.3-1.2-.6-1.2-1.3Z"/>
    </g>
  </g>
  <g>
    <rect class="w-box" x="252" y="801" width="54" height="36"/>
    <g>
      <path class="w-text" d="M273.4,823.8v-.5c-.2-1.1.2-2.4,1.3-3.6.9-1.1,1.5-1.9,1.5-2.9s-.7-1.8-2-1.8c-.8,0-1.6.3-2.1.7l-.5-1.3c.7-.5,1.9-.8,3-.8,2.4,0,3.5,1.5,3.5,3.1s-.8,2.5-1.8,3.7c-.9,1.1-1.3,2-1.2,3.1v.5s-1.6,0-1.6,0ZM273,826.7c0-.8.5-1.3,1.3-1.3s1.2.5,1.2,1.3-.5,1.3-1.3,1.3-1.2-.6-1.2-1.3Z"/>
      <path class="w-text" d="M282,823.8v-.5c-.2-1.1.2-2.4,1.3-3.6.9-1.1,1.5-1.9,1.5-2.9s-.7-1.8-2-1.8c-.8,0-1.6.3-2.1.7l-.5-1.3c.7-.5,1.9-.8,3-.8,2.4,0,3.5,1.5,3.5,3.1s-.8,2.5-1.8,3.7c-.9,1.1-1.3,2-1.2,3.1v.5s-1.6,0-1.6,0ZM281.5,826.7c0-.8.5-1.3,1.3-1.3s1.2.5,1.2,1.3-.5,1.3-1.3,1.3-1.2-.6-1.2-1.3Z"/>
    </g>
  </g>
  <g>
    <rect class="or-box" x="252" y="891" width="54" height="36"/>
    <g>
      <path class="or-text" d="M279.7,910.3c0,4.2-2.5,6.4-5.6,6.4s-5.5-2.5-5.5-6.2,2.4-6.4,5.6-6.4,5.5,2.5,5.5,6.1ZM270.3,910.5c0,2.6,1.4,4.9,3.9,4.9s3.9-2.3,3.9-5-1.3-4.9-3.9-4.9-3.9,2.4-3.9,5.1Z"/>
      <path class="or-text" d="M281.7,904.6c.8-.2,1.9-.3,3-.3,1.7,0,2.8.3,3.5,1,.6.5,1,1.4,1,2.3,0,1.6-1,2.7-2.3,3.1h0c.9.4,1.5,1.2,1.8,2.5.4,1.7.7,2.9.9,3.3h-1.6c-.2-.3-.5-1.4-.8-2.9-.4-1.7-1-2.3-2.4-2.4h-1.5v5.3h-1.6v-12ZM283.3,910.1h1.6c1.7,0,2.7-.9,2.7-2.3s-1.1-2.3-2.8-2.3c-.8,0-1.3,0-1.5.1v4.4Z"/>
    </g>
  </g>
  <g>
    <rect class="and-box" x="432" y="171" width="54" height="36"/>
    <g>
      <path class="and-text" d="M444.9,192.7l-1.3,3.8h-1.6l4.1-12.1h1.9l4.1,12.1h-1.7l-1.3-3.8h-4.3ZM448.9,191.5l-1.2-3.5c-.3-.8-.5-1.5-.6-2.2h0c-.2.7-.4,1.5-.6,2.2l-1.2,3.5h3.7Z"/>
      <path class="and-text" d="M454,196.5v-12.1h1.7l3.9,6.1c.9,1.4,1.6,2.7,2.2,3.9h0c-.1-1.6-.2-3.1-.2-5v-5.1h1.5v12.1h-1.6l-3.9-6.2c-.8-1.4-1.7-2.7-2.3-4.1h0c0,1.5.1,3,.1,5v5.2h-1.5Z"/>
      <path class="and-text" d="M465.8,184.6c1-.1,2.1-.3,3.3-.3,2.3,0,3.9.5,4.9,1.5,1.1,1,1.7,2.4,1.7,4.4s-.6,3.6-1.7,4.7c-1.1,1.1-3,1.7-5.4,1.7s-2.1,0-2.8-.1v-11.9ZM467.4,195.3c.4,0,1,0,1.6,0,3.3,0,5.2-1.9,5.2-5.1,0-2.9-1.6-4.7-4.9-4.7s-1.4,0-1.8.2v9.6Z"/>
    </g>
  </g>
  <g>
    <rect class="xor-box" x="522" y="171" width="54" height="36"/>
    <g>
      <path class="xor-text" d="M541.1,196.5l-1.5-2.7c-.6-1-1-1.7-1.4-2.4h0c-.3.7-.7,1.4-1.3,2.4l-1.5,2.7h-1.8l3.7-6.1-3.6-6h1.8l1.6,2.8c.4.8.8,1.4,1.1,2.1h0c.3-.7.6-1.3,1.1-2.1l1.7-2.8h1.8l-3.7,5.9,3.8,6.2h-1.8Z"/>
      <path class="xor-text" d="M554.6,190.3c0,4.2-2.5,6.4-5.6,6.4s-5.5-2.5-5.5-6.2,2.4-6.4,5.6-6.4,5.5,2.5,5.5,6.1ZM545.2,190.5c0,2.6,1.4,4.9,3.9,4.9s3.9-2.3,3.9-5-1.3-4.9-3.9-4.9-3.9,2.4-3.9,5.1Z"/>
      <path class="xor-text" d="M556.6,184.6c.8-.2,1.9-.3,3-.3,1.7,0,2.8.3,3.5,1,.6.5,1,1.4,1,2.3,0,1.6-1,2.7-2.3,3.1h0c.9.4,1.5,1.2,1.8,2.5.4,1.7.7,2.9.9,3.3h-1.6c-.2-.3-.5-1.4-.8-2.9-.4-1.7-1-2.3-2.4-2.4h-1.5v5.3h-1.6v-12ZM558.2,190.1h1.6c1.7,0,2.7-.9,2.7-2.3s-1.1-2.3-2.8-2.3c-.8,0-1.3,0-1.5.1v4.4Z"/>
    </g>
  </g>
  <g>
    <rect class="x-box" x="432" y="81" width="54" height="36"/>
    <g>
      <path class="x-text" d="M451.1,97.6l1.4,2.2c.4.6.7,1.1,1,1.7h0c.3-.6.7-1.1,1-1.7l1.4-2.2h2l-3.5,4.9,3.6,5.2h-2.1l-1.5-2.3c-.4-.6-.7-1.2-1.1-1.8h0c-.3.6-.7,1.2-1.1,1.8l-1.5,2.3h-2l3.6-5.2-3.4-5h2.1Z"/>
      <path class="x-text" d="M463.4,95.9h0l-2.4,1.3-.4-1.4,3-1.6h1.6v13.6h-1.8v-11.9Z"/>
    </g>
  </g>
  <g>
    <rect class="y-box" x="522" y="81" width="54" height="36"/>
    <g>
      <path class="y-text" d="M540.9,97.6l2.2,6c.2.7.5,1.5.7,2.1h0c.2-.6.4-1.4.7-2.1l2-6h2l-2.8,7.2c-1.3,3.5-2.2,5.3-3.5,6.4-.9.8-1.8,1.1-2.3,1.2l-.5-1.6c.5-.1,1.1-.4,1.6-.9.5-.4,1.1-1.1,1.6-2.1s.1-.3.1-.4,0-.3-.1-.5l-3.8-9.4h2Z"/>
      <path class="y-text" d="M553.5,95.9h0l-2.4,1.3-.4-1.4,3-1.6h1.6v13.6h-1.8v-11.9Z"/>
    </g>
  </g>
  <g>
    <rect class="w-box" x="522" y="261" width="54" height="36"/>
    <g>
      <path class="w-text" d="M543.4,283.8v-.5c-.2-1.1.2-2.4,1.3-3.6.9-1.1,1.5-1.9,1.5-2.9s-.7-1.8-2-1.8c-.8,0-1.6.3-2.1.7l-.5-1.3c.7-.5,1.9-.8,3-.8,2.4,0,3.5,1.5,3.5,3.1s-.8,2.5-1.8,3.7c-.9,1.1-1.3,2-1.2,3.1v.5s-1.6,0-1.6,0ZM543,286.7c0-.8.5-1.3,1.3-1.3s1.2.5,1.2,1.3-.5,1.3-1.3,1.3-1.2-.6-1.2-1.3Z"/>
      <path class="w-text" d="M552,283.8v-.5c-.2-1.1.2-2.4,1.3-3.6.9-1.1,1.5-1.9,1.5-2.9s-.7-1.8-2-1.8c-.8,0-1.6.3-2.1.7l-.5-1.3c.7-.5,1.9-.8,3-.8,2.4,0,3.5,1.5,3.5,3.1s-.8,2.5-1.8,3.7c-.9,1.1-1.3,2-1.2,3.1v.5s-1.6,0-1.6,0ZM551.5,286.7c0-.8.5-1.3,1.3-1.3s1.2.5,1.2,1.3-.5,1.3-1.3,1.3-1.2-.6-1.2-1.3Z"/>
    </g>
  </g>
  <g>
    <rect class="w-box" x="612" y="261" width="54" height="36"/>
    <g>
      <path class="w-text" d="M633.4,283.8v-.5c-.2-1.1.2-2.4,1.3-3.6.9-1.1,1.5-1.9,1.5-2.9s-.7-1.8-2-1.8c-.8,0-1.6.3-2.1.7l-.5-1.3c.7-.5,1.9-.8,3-.8,2.4,0,3.5,1.5,3.5,3.1s-.8,2.5-1.8,3.7c-.9,1.1-1.3,2-1.2,3.1v.5s-1.6,0-1.6,0ZM633,286.7c0-.8.5-1.3,1.3-1.3s1.2.5,1.2,1.3-.5,1.3-1.3,1.3-1.2-.6-1.2-1.3Z"/>
      <path class="w-text" d="M642,283.8v-.5c-.2-1.1.2-2.4,1.3-3.6.9-1.1,1.5-1.9,1.5-2.9s-.7-1.8-2-1.8c-.8,0-1.6.3-2.1.7l-.5-1.3c.7-.5,1.9-.8,3-.8,2.4,0,3.5,1.5,3.5,3.1s-.8,2.5-1.8,3.7c-.9,1.1-1.3,2-1.2,3.1v.5s-1.6,0-1.6,0ZM641.5,286.7c0-.8.5-1.3,1.3-1.3s1.2.5,1.2,1.3-.5,1.3-1.3,1.3-1.2-.6-1.2-1.3Z"/>
    </g>
  </g>
  <g>
    <rect class="xor-box" x="612" y="351" width="54" height="36"/>
    <g>
      <path class="xor-text" d="M631.1,376.5l-1.5-2.7c-.6-1-1-1.7-1.4-2.4h0c-.3.7-.7,1.4-1.3,2.4l-1.5,2.7h-1.8l3.7-6.1-3.6-6h1.8l1.6,2.8c.4.8.8,1.4,1.1,2.1h0c.3-.7.6-1.3,1.1-2.1l1.7-2.8h1.8l-3.7,5.9,3.8,6.2h-1.8Z"/>
      <path class="xor-text" d="M644.6,370.3c0,4.2-2.5,6.4-5.6,6.4s-5.5-2.5-5.5-6.2,2.4-6.4,5.6-6.4,5.5,2.5,5.5,6.1ZM635.2,370.5c0,2.6,1.4,4.9,3.9,4.9s3.9-2.3,3.9-5-1.3-4.9-3.9-4.9-3.9,2.4-3.9,5.1Z"/>
      <path class="xor-text" d="M646.6,364.6c.8-.2,1.9-.3,3-.3,1.7,0,2.8.3,3.5,1,.6.5,1,1.4,1,2.3,0,1.6-1,2.7-2.3,3.1h0c.9.4,1.5,1.2,1.8,2.5.4,1.7.7,2.9.9,3.3h-1.6c-.2-.3-.5-1.4-.8-2.9-.4-1.7-1-2.3-2.4-2.4h-1.5v5.3h-1.6v-12ZM648.2,370.1h1.6c1.7,0,2.7-.9,2.7-2.3s-1.1-2.3-2.8-2.3c-.8,0-1.3,0-1.5.1v4.4Z"/>
    </g>
  </g>
  <g>
    <rect class="and-box" x="522" y="351" width="54" height="36"/>
    <g>
      <path class="and-text" d="M534.9,372.7l-1.3,3.8h-1.6l4.1-12.1h1.9l4.1,12.1h-1.7l-1.3-3.8h-4.3ZM538.9,371.5l-1.2-3.5c-.3-.8-.5-1.5-.6-2.2h0c-.2.7-.4,1.5-.6,2.2l-1.2,3.5h3.7Z"/>
      <path class="and-text" d="M544,376.5v-12.1h1.7l3.9,6.1c.9,1.4,1.6,2.7,2.2,3.9h0c-.1-1.6-.2-3.1-.2-5v-5.1h1.5v12.1h-1.6l-3.9-6.2c-.8-1.4-1.7-2.7-2.3-4.1h0c0,1.5.1,3,.1,5v5.2h-1.5Z"/>
      <path class="and-text" d="M555.8,364.6c1-.1,2.1-.3,3.3-.3,2.3,0,3.9.5,4.9,1.5,1.1,1,1.7,2.4,1.7,4.4s-.6,3.6-1.7,4.7c-1.1,1.1-3,1.7-5.4,1.7s-2.1,0-2.8-.1v-11.9ZM557.4,375.3c.4,0,1,0,1.6,0,3.3,0,5.2-1.9,5.2-5.1,0-2.9-1.6-4.7-4.9-4.7s-1.4,0-1.8.2v9.6Z"/>
    </g>
  </g>
  <g>
    <rect class="z-box" x="702" y="351" width="54" height="36"/>
    <g>
      <path class="z-text" d="M719.5,376.7l4.6-6c.4-.5.9-1,1.3-1.6h0s-5.5,0-5.5,0v-1.5h7.7v1.2s-4.6,5.9-4.6,5.9c-.4.6-.8,1.1-1.3,1.6h0s5.9,0,5.9,0v1.5h-8.3v-1.1Z"/>
      <path class="z-text" d="M733.1,365.9h0l-2.4,1.3-.4-1.4,3-1.6h1.6v13.6h-1.8v-11.9Z"/>
    </g>
  </g>
  <g>
    <rect class="w-box" x="522" y="441" width="54" height="36"/>
    <g>
      <path class="w-text" d="M543.4,463.8v-.5c-.2-1.1.2-2.4,1.3-3.6.9-1.1,1.5-1.9,1.5-2.9s-.7-1.8-2-1.8c-.8,0-1.6.3-2.1.7l-.5-1.3c.7-.5,1.9-.8,3-.8,2.4,0,3.5,1.5,3.5,3.1s-.8,2.5-1.8,3.7c-.9,1.1-1.3,2-1.2,3.1v.5s-1.6,0-1.6,0ZM543,466.7c0-.8.5-1.3,1.3-1.3s1.2.5,1.2,1.3-.5,1.3-1.3,1.3-1.2-.6-1.2-1.3Z"/>
      <path class="w-text" d="M552,463.8v-.5c-.2-1.1.2-2.4,1.3-3.6.9-1.1,1.5-1.9,1.5-2.9s-.7-1.8-2-1.8c-.8,0-1.6.3-2.1.7l-.5-1.3c.7-.5,1.9-.8,3-.8,2.4,0,3.5,1.5,3.5,3.1s-.8,2.5-1.8,3.7c-.9,1.1-1.3,2-1.2,3.1v.5s-1.6,0-1.6,0ZM551.5,466.7c0-.8.5-1.3,1.3-1.3s1.2.5,1.2,1.3-.5,1.3-1.3,1.3-1.2-.6-1.2-1.3Z"/>
    </g>
  </g>
  <g>
    <rect class="w-box" x="432" y="441" width="54" height="36"/>
    <g>
      <path class="w-text" d="M453.4,463.8v-.5c-.2-1.1.2-2.4,1.3-3.6.9-1.1,1.5-1.9,1.5-2.9s-.7-1.8-2-1.8c-.8,0-1.6.3-2.1.7l-.5-1.3c.7-.5,1.9-.8,3-.8,2.4,0,3.5,1.5,3.5,3.1s-.8,2.5-1.8,3.7c-.9,1.1-1.3,2-1.2,3.1v.5s-1.6,0-1.6,0ZM453,466.7c0-.8.5-1.3,1.3-1.3s1.2.5,1.2,1.3-.5,1.3-1.3,1.3-1.2-.6-1.2-1.3Z"/>
      <path class="w-text" d="M462,463.8v-.5c-.2-1.1.2-2.4,1.3-3.6.9-1.1,1.5-1.9,1.5-2.9s-.7-1.8-2-1.8c-.8,0-1.6.3-2.1.7l-.5-1.3c.7-.5,1.9-.8,3-.8,2.4,0,3.5,1.5,3.5,3.1s-.8,2.5-1.8,3.7c-.9,1.1-1.3,2-1.2,3.1v.5s-1.6,0-1.6,0ZM461.5,466.7c0-.8.5-1.3,1.3-1.3s1.2.5,1.2,1.3-.5,1.3-1.3,1.3-1.2-.6-1.2-1.3Z"/>
    </g>
  </g>
  <g>
    <rect class="or-box" x="432" y="531" width="54" height="36"/>
    <g>
      <path class="or-text" d="M459.7,550.3c0,4.2-2.5,6.4-5.6,6.4s-5.5-2.5-5.5-6.2,2.4-6.4,5.6-6.4,5.5,2.5,5.5,6.1ZM450.3,550.5c0,2.6,1.4,4.9,3.9,4.9s3.9-2.3,3.9-5-1.3-4.9-3.9-4.9-3.9,2.4-3.9,5.1Z"/>
      <path class="or-text" d="M461.7,544.6c.8-.2,1.9-.3,3-.3,1.7,0,2.8.3,3.5,1,.6.5,1,1.4,1,2.3,0,1.6-1,2.7-2.3,3.1h0c.9.4,1.5,1.2,1.8,2.5.4,1.7.7,2.9.9,3.3h-1.6c-.2-.3-.5-1.4-.8-2.9-.4-1.7-1-2.3-2.4-2.4h-1.5v5.3h-1.6v-12ZM463.3,550.1h1.6c1.7,0,2.7-.9,2.7-2.3s-1.1-2.3-2.8-2.3c-.8,0-1.3,0-1.5.1v4.4Z"/>
    </g>
  </g>
  <g>
    <rect class="and-box" x="612" y="171" width="54" height="36"/>
    <g>
      <path class="and-text" d="M624.9,192.7l-1.3,3.8h-1.6l4.1-12.1h1.9l4.1,12.1h-1.7l-1.3-3.8h-4.3ZM628.9,191.5l-1.2-3.5c-.3-.8-.5-1.5-.6-2.2h0c-.2.7-.4,1.5-.6,2.2l-1.2,3.5h3.7Z"/>
      <path class="and-text" d="M634,196.5v-12.1h1.7l3.9,6.1c.9,1.4,1.6,2.7,2.2,3.9h0c-.1-1.6-.2-3.1-.2-5v-5.1h1.5v12.1h-1.6l-3.9-6.2c-.8-1.4-1.7-2.7-2.3-4.1h0c0,1.5.1,3,.1,5v5.2h-1.5Z"/>
      <path class="and-text" d="M645.8,184.6c1-.1,2.1-.3,3.3-.3,2.3,0,3.9.5,4.9,1.5,1.1,1,1.7,2.4,1.7,4.4s-.6,3.6-1.7,4.7c-1.1,1.1-3,1.7-5.4,1.7s-2.1,0-2.8-.1v-11.9ZM647.4,195.3c.4,0,1,0,1.6,0,3.3,0,5.2-1.9,5.2-5.1,0-2.9-1.6-4.7-4.9-4.7s-1.4,0-1.8.2v9.6Z"/>
    </g>
  </g>
  <g>
    <rect class="xor-box" x="702" y="171" width="54" height="36"/>
    <g>
      <path class="xor-text" d="M721.1,196.5l-1.5-2.7c-.6-1-1-1.7-1.4-2.4h0c-.3.7-.7,1.4-1.3,2.4l-1.5,2.7h-1.8l3.7-6.1-3.6-6h1.8l1.6,2.8c.4.8.8,1.4,1.1,2.1h0c.3-.7.6-1.3,1.1-2.1l1.7-2.8h1.8l-3.7,5.9,3.8,6.2h-1.8Z"/>
      <path class="xor-text" d="M734.6,190.3c0,4.2-2.5,6.4-5.6,6.4s-5.5-2.5-5.5-6.2,2.4-6.4,5.6-6.4,5.5,2.5,5.5,6.1ZM725.2,190.5c0,2.6,1.4,4.9,3.9,4.9s3.9-2.3,3.9-5-1.3-4.9-3.9-4.9-3.9,2.4-3.9,5.1Z"/>
      <path class="xor-text" d="M736.6,184.6c.8-.2,1.9-.3,3-.3,1.7,0,2.8.3,3.5,1,.6.5,1,1.4,1,2.3,0,1.6-1,2.7-2.3,3.1h0c.9.4,1.5,1.2,1.8,2.5.4,1.7.7,2.9.9,3.3h-1.6c-.2-.3-.5-1.4-.8-2.9-.4-1.7-1-2.3-2.4-2.4h-1.5v5.3h-1.6v-12ZM738.2,190.1h1.6c1.7,0,2.7-.9,2.7-2.3s-1.1-2.3-2.8-2.3c-.8,0-1.3,0-1.5.1v4.4Z"/>
    </g>
  </g>
  <g>
    <rect class="z-box" x="792" y="171" width="54" height="36"/>
    <g>
      <path class="z-text" d="M809.5,196.7l4.6-6c.4-.5.9-1,1.3-1.6h0s-5.5,0-5.5,0v-1.5h7.7v1.2s-4.6,5.9-4.6,5.9c-.4.6-.8,1.1-1.3,1.6h0s5.9,0,5.9,0v1.5h-8.3v-1.1Z"/>
      <path class="z-text" d="M828.1,190.8c0,4.6-1.7,7.2-4.7,7.2s-4.5-2.5-4.5-7c0-4.6,2-7.1,4.7-7.1s4.5,2.6,4.5,6.9ZM820.7,191c0,3.5,1.1,5.6,2.8,5.6s2.8-2.2,2.8-5.7-.9-5.6-2.8-5.6-2.8,2-2.8,5.7Z"/>
    </g>
  </g>
  <g>
    <rect class="x-box" x="612" y="81" width="54" height="36"/>
    <g>
      <path class="x-text" d="M631.1,97.6l1.4,2.2c.4.6.7,1.1,1,1.7h0c.3-.6.7-1.1,1-1.7l1.4-2.2h2l-3.5,4.9,3.6,5.2h-2.1l-1.5-2.3c-.4-.6-.7-1.2-1.1-1.8h0c-.3.6-.7,1.2-1.1,1.8l-1.5,2.3h-2l3.6-5.2-3.4-5h2.1Z"/>
      <path class="x-text" d="M648.5,100.8c0,4.6-1.7,7.2-4.7,7.2s-4.5-2.5-4.5-7c0-4.6,2-7.1,4.7-7.1s4.5,2.6,4.5,6.9ZM641.1,101c0,3.5,1.1,5.6,2.8,5.6s2.8-2.2,2.8-5.7-.9-5.6-2.8-5.6-2.8,2-2.8,5.7Z"/>
    </g>
  </g>
  <g>
    <rect class="y-box" x="702" y="81" width="54" height="36"/>
    <g>
      <path class="y-text" d="M720.9,97.6l2.2,6c.2.7.5,1.5.7,2.1h0c.2-.6.4-1.4.7-2.1l2-6h2l-2.8,7.2c-1.3,3.5-2.2,5.3-3.5,6.4-.9.8-1.8,1.1-2.3,1.2l-.5-1.6c.5-.1,1.1-.4,1.6-.9.5-.4,1.1-1.1,1.6-2.1s.1-.3.1-.4,0-.3-.1-.5l-3.8-9.4h2Z"/>
      <path class="y-text" d="M738.6,100.8c0,4.6-1.7,7.2-4.7,7.2s-4.5-2.5-4.5-7c0-4.6,2-7.1,4.7-7.1s4.5,2.6,4.5,6.9ZM731.2,101c0,3.5,1.1,5.6,2.8,5.6s2.8-2.2,2.8-5.7-.9-5.6-2.8-5.6-2.8,2-2.8,5.7Z"/>
    </g>
  </g>
</svg>